# File created by Blade
# Date/Time:  Thu Sep 25 18:48:06 2014
# Frame Rate: 120.000 fps
#------------------------------------------------------
:FULLY-SPECIFIED
:DEGREES
2108
root 0.746567 32.927709 2.580149 6.898529 -7.149683 -0.474343
Spine -14.245529 -3.101082 -1.727700
Head 17.405573 -3.254121 15.690998
LeftShoulder 2.560631 31.266424 3.889192
LeftArm 141.817851 64.728289 48.783689
LeftForeArm 28.648295 -0.000000 122.535978
LeftHand -0.576269 -0.000000 -20.848569
LeftHandThumb1 -26.253704 0.000000 33.147579
RightShoulder -25.100675 24.646271 -45.579826
RightArm 114.272591 34.506000 90.261417
RightForeArm 23.816555 0.000000 153.584987
RightHand 8.739810 -0.000000 5.107733
RightHandThumb1 -24.326973 -0.000000 -32.862282
LeftUpLeg 3.295337 15.846500 4.468506
LeftLeg -3.249341 -0.000000 0.000000
LeftFoot -8.390559 3.226079 -16.277410
LeftToeBase 11.322373 -0.000000 -0.000000
RightUpLeg -0.252292 -5.173392 -5.506228
RightLeg -0.703114 -0.000000 0.000000
RightFoot -5.473810 -1.639462 4.640260
RightToeBase 0.484780 -0.000000 -0.000000
2109
root 0.747633 32.928013 2.583445 6.892700 -7.119837 -0.475678
Spine -14.268197 -3.085121 -1.724025
Head 17.392440 -3.211192 15.725646
LeftShoulder 2.568780 31.249797 3.916910
LeftArm 141.839575 64.722827 48.794853
LeftForeArm 28.640291 -0.000000 122.526501
LeftHand -0.561900 -0.000000 -20.833446
LeftHandThumb1 -26.253704 0.000000 33.147579
RightShoulder -25.092192 24.655279 -45.570776
RightArm 114.283518 34.494883 90.288555
RightForeArm 23.847570 -0.000000 153.588280
RightHand 8.713810 -0.000000 5.056866
RightHandThumb1 -24.326973 -0.000000 -32.862282
LeftUpLeg 3.305709 15.826477 4.471573
LeftLeg -3.254151 -0.000000 0.000000
LeftFoot -8.388900 3.230744 -16.278144
LeftToeBase 11.305702 -0.000000 -0.000000
RightUpLeg -0.230549 -5.190313 -5.504821
RightLeg -0.715043 -0.000000 0.000000
RightFoot -5.454407 -1.663570 4.620847
RightToeBase 0.430845 -0.000000 -0.000000
2110
root 0.747777 32.928425 2.586714 6.883240 -7.091779 -0.477587
Spine -14.291876 -3.055562 -1.729026
Head 17.330144 -3.280860 15.644066
LeftShoulder 2.596678 31.246418 3.958752
LeftArm 141.838197 64.726924 48.780959
LeftForeArm 28.635693 -0.000000 122.512299
LeftHand -0.538137 -0.000000 -20.857834
LeftHandThumb1 -26.253704 0.000000 33.147579
RightShoulder -25.099773 24.632754 -45.563896
RightArm 114.343531 34.433796 90.413087
RightForeArm 24.098638 -0.000000 153.599274
RightHand 8.633843 -0.000000 5.113800
RightHandThumb1 -24.326973 -0.000000 -32.862282
LeftUpLeg 3.319261 15.814608 4.480176
LeftLeg -3.258599 -0.000000 0.000000
LeftFoot -8.373515 3.210360 -16.282138
LeftToeBase 11.297686 -0.000000 -0.000000
RightUpLeg -0.207396 -5.204267 -5.501608
RightLeg -0.719142 -0.000000 0.000000
RightFoot -5.454997 -1.686285 4.602333
RightToeBase 0.439354 -0.000000 -0.000000
2111
root 0.747817 32.928838 2.591082 6.872694 -7.062128 -0.469370
Spine -14.329845 -3.037813 -1.753800
Head 17.294448 -3.324574 15.587008
LeftShoulder 2.636392 31.241238 4.010630
LeftArm 141.844174 64.761465 48.771975
LeftForeArm 28.588291 -0.000000 122.515585
LeftHand -0.571250 -0.000000 -20.963754
LeftHandThumb1 -26.253704 0.000000 33.147579
RightShoulder -25.077045 24.643375 -45.547719
RightArm 114.326055 34.424197 90.430270
RightForeArm 24.115165 0.000000 153.603906
RightHand 8.643739 -0.000000 5.111586
RightHandThumb1 -24.326973 -0.000000 -32.862282
LeftUpLeg 3.323663 15.849891 4.473069
LeftLeg -3.245601 -0.000000 0.000000
LeftFoot -8.355677 3.173128 -16.263257
LeftToeBase 11.274050 -0.000000 -0.000000
RightUpLeg -0.177664 -5.231050 -5.509102
RightLeg -0.732983 -0.000000 0.000000
RightFoot -5.451259 -1.687112 4.603060
RightToeBase 0.445824 -0.000000 -0.000000
2112
root 0.747950 32.929526 2.594296 6.871154 -7.035119 -0.468958
Spine -14.374971 -3.032382 -1.770850
Head 17.226899 -3.419483 15.473934
LeftShoulder 2.665027 31.252074 4.058271
LeftArm 141.825678 64.778770 48.732052
LeftForeArm 28.577912 0.000000 122.494296
LeftHand -0.599748 -0.000000 -20.948719
LeftHandThumb1 -26.253704 0.000000 33.147579
RightShoulder -25.041454 24.644293 -45.509366
RightArm 114.322540 34.425115 90.449229
RightForeArm 24.109167 -0.000000 153.616332
RightHand 8.637394 -0.000000 5.143639
RightHandThumb1 -24.326973 -0.000000 -32.862282
LeftUpLeg 3.327943 15.836278 4.476046
LeftLeg -3.251357 -0.000000 0.000000
LeftFoot -8.360363 3.168955 -16.243843
LeftToeBase 11.288780 -0.000000 -0.000000
RightUpLeg -0.160406 -5.236701 -5.507906
RightLeg -0.745371 -0.000000 0.000000
RightFoot -5.437168 -1.704078 4.617791
RightToeBase 0.397919 -0.000000 -0.000000
2113
root 0.749797 32.929765 2.597101 6.866326 -7.003796 -0.463348
Spine -14.383972 -3.024251 -1.763930
Head 17.205369 -3.367068 15.516943
LeftShoulder 2.656849 31.230112 4.057358
LeftArm 141.868935 64.782654 48.784666
LeftForeArm 28.584955 -0.000000 122.492524
LeftHand -0.601771 -0.000000 -20.898509
LeftHandThumb1 -26.253704 0.000000 33.147579
RightShoulder -25.063616 24.664447 -45.535736
RightArm 114.317330 34.409629 90.456755
RightForeArm 24.069950 0.000000 153.623050
RightHand 8.632997 0.000000 5.102122
RightHandThumb1 -24.326973 -0.000000 -32.862282
LeftUpLeg 3.332156 15.822358 4.471645
LeftLeg -3.250487 -0.000000 0.000000
LeftFoot -8.349968 3.145509 -16.269078
LeftToeBase 11.250729 -0.000000 -0.000000
RightUpLeg -0.147292 -5.264361 -5.515176
RightLeg -0.737683 -0.000000 0.000000
RightFoot -5.462997 -1.695910 4.644532
RightToeBase 0.477608 -0.000000 -0.000000
2114
root 0.750725 32.929347 2.600490 6.863124 -6.977898 -0.459034
Spine -14.416626 -2.998498 -1.773088
Head 17.164588 -3.360516 15.527270
LeftShoulder 2.696575 31.206964 4.095376
LeftArm 141.919016 64.807028 48.822740
LeftForeArm 28.625579 0.000000 122.483495
LeftHand -0.593870 -0.000000 -20.914366
LeftHandThumb1 -26.253704 0.000000 33.147579
RightShoulder -25.057052 24.668061 -45.539904
RightArm 114.306638 34.409620 90.475602
RightForeArm 24.073326 -0.000000 153.622087
RightHand 8.625767 0.000000 5.140356
RightHandThumb1 -24.326973 -0.000000 -32.862282
LeftUpLeg 3.340410 15.798745 4.470072
LeftLeg -3.259073 -0.000000 0.000000
LeftFoot -8.350982 3.138775 -16.237345
LeftToeBase 11.327694 -0.000000 -0.000000
RightUpLeg -0.131648 -5.316385 -5.519295
RightLeg -0.746579 -0.000000 0.000000
RightFoot -5.437084 -1.676619 4.623177
RightToeBase 0.366025 -0.000000 -0.000000
2115
root 0.751327 32.929536 2.603081 6.862228 -6.956732 -0.460227
Spine -14.439966 -2.985805 -1.773302
Head 17.113942 -3.334434 15.538044
LeftShoulder 2.685657 31.199157 4.104330
LeftArm 141.900899 64.809165 48.803834
LeftForeArm 28.557126 0.000000 122.476740
LeftHand -0.592987 -0.000000 -21.010921
LeftHandThumb1 -26.253704 0.000000 33.147579
RightShoulder -25.054026 24.672805 -45.536973
RightArm 114.303632 34.415108 90.478309
RightForeArm 24.049807 -0.000000 153.629028
RightHand 8.626457 -0.000000 5.140422
RightHandThumb1 -24.326973 -0.000000 -32.862282
LeftUpLeg 3.346027 15.771496 4.473536
LeftLeg -3.266838 -0.000000 0.000000
LeftFoot -8.347585 3.143096 -16.254346
LeftToeBase 11.295811 -0.000000 -0.000000
RightUpLeg -0.119705 -5.324364 -5.518676
RightLeg -0.752475 -0.000000 0.000000
RightFoot -5.426512 -1.692946 4.617381
RightToeBase 0.346148 -0.000000 -0.000000
2116
root 0.750911 32.929313 2.606019 6.860264 -6.936002 -0.466122
Spine -14.456991 -2.974025 -1.770021
Head 17.070649 -3.280989 15.596743
LeftShoulder 2.676763 31.183246 4.117600
LeftArm 141.943296 64.801378 48.843246
LeftForeArm 28.579733 -0.000000 122.473648
LeftHand -0.583025 -0.000000 -20.986915
LeftHandThumb1 -26.253704 0.000000 33.147579
RightShoulder -25.059475 24.715042 -45.559221
RightArm 114.208764 34.465372 90.358891
RightForeArm 23.747418 -0.000000 153.648797
RightHand 8.588404 -0.000000 4.892506
RightHandThumb1 -24.326973 -0.000000 -32.862282
LeftUpLeg 3.356988 15.760201 4.483471
LeftLeg -3.278825 -0.000000 0.000000
LeftFoot -8.328424 3.131052 -16.249410
LeftToeBase 11.272650 -0.000000 -0.000000
RightUpLeg -0.103189 -5.345695 -5.508913
RightLeg -0.761159 -0.000000 0.000000
RightFoot -5.429685 -1.695289 4.622023
RightToeBase 0.356576 -0.000000 -0.000000
2117
root 0.751767 32.929247 2.608358 6.859195 -6.916281 -0.466324
Spine -14.473522 -2.963594 -1.768140
Head 17.028049 -3.230112 15.638169
LeftShoulder 2.668001 31.173564 4.126885
LeftArm 141.929960 64.798027 48.822009
LeftForeArm 28.530320 -0.000000 122.465041
LeftHand -0.553480 -0.000000 -20.871712
LeftHandThumb1 -26.253704 0.000000 33.147579
RightShoulder -25.066200 24.719985 -45.562303
RightArm 114.193114 34.468081 90.343208
RightForeArm 23.708638 -0.000000 153.649683
RightHand 8.604030 -0.000000 4.892702
RightHandThumb1 -24.326973 -0.000000 -32.862282
LeftUpLeg 3.362463 15.755543 4.485392
LeftLeg -3.287699 -0.000000 0.000000
LeftFoot -8.331532 3.122259 -16.231247
LeftToeBase 11.302892 -0.000000 -0.000000
RightUpLeg -0.090742 -5.378757 -5.510205
RightLeg -0.769156 -0.000000 0.000000
RightFoot -5.423188 -1.680448 4.591936
RightToeBase 0.346976 -0.000000 -0.000000
